<svg width="10" height="8" viewBox="0 0 10 8" fill="none" xmlns="http://www.w3.org/2000/svg">
<path d="M9.04041 0.793031C9.22789 0.980558 9.3332 1.23487 9.3332 1.50003C9.3332 1.76519 9.22789 2.0195 9.04041 2.20703L4.04041 7.20703C3.85289 7.3945 3.59858 7.49982 3.33342 7.49982C3.06825 7.49982 2.81394 7.3945 2.62642 7.20703L0.626415 5.20703C0.444257 5.01843 0.343463 4.76583 0.345741 4.50363C0.348019 4.24143 0.453188 3.99062 0.638596 3.80521C0.824005 3.6198 1.07482 3.51463 1.33701 3.51236C1.59921 3.51008 1.85181 3.61087 2.04041 3.79303L3.33342 5.08603L7.62642 0.793031C7.81394 0.60556 8.06825 0.500244 8.33342 0.500244C8.59858 0.500244 8.85289 0.60556 9.04041 0.793031Z" fill="white"/>
</svg>
