<svg width="16" height="16" viewBox="0 0 16 16" fill="none" xmlns="http://www.w3.org/2000/svg">
<path d="M11.3335 4.00004H14.6668V5.33337H13.3335V14C13.3335 14.1769 13.2633 14.3464 13.1382 14.4714C13.0132 14.5965 12.8436 14.6667 12.6668 14.6667H3.3335C3.15669 14.6667 2.98712 14.5965 2.86209 14.4714C2.73707 14.3464 2.66683 14.1769 2.66683 14V5.33337H1.3335V4.00004H4.66683V2.00004C4.66683 1.82323 4.73707 1.65366 4.86209 1.52864C4.98712 1.40361 5.15669 1.33337 5.3335 1.33337H10.6668C10.8436 1.33337 11.0132 1.40361 11.1382 1.52864C11.2633 1.65366 11.3335 1.82323 11.3335 2.00004V4.00004ZM12.0002 5.33337H4.00016V13.3334H12.0002V5.33337ZM6.00016 7.33337H7.3335V11.3334H6.00016V7.33337ZM8.66683 7.33337H10.0002V11.3334H8.66683V7.33337ZM6.00016 2.66671V4.00004H10.0002V2.66671H6.00016Z" fill="#FF342A"/>
</svg>
